<svg width="570" height="570" viewBox="0 0 570 570" fill="none" xmlns="http://www.w3.org/2000/svg">
<mask id="mask0_1_20" style="mask-type:luminance" maskUnits="userSpaceOnUse" x="83" y="296" width="161" height="185">
<path d="M236.572 480.567C195.163 470.323 158.074 447.201 130.645 414.532C103.216 381.864 86.8617 341.333 83.9378 298.776L110.742 296.934C113.277 333.817 127.45 368.943 151.222 397.256C174.994 425.569 207.137 445.607 243.024 454.485L236.572 480.567Z" fill="white"/>
</mask>
<g mask="url(#mask0_1_20)">
<path d="M236.572 480.567C195.163 470.323 158.074 447.201 130.645 414.532C103.216 381.864 86.8617 341.333 83.9378 298.776L110.742 296.934C113.277 333.817 127.45 368.943 151.222 397.256C174.994 425.569 207.137 445.607 243.024 454.485L236.572 480.567Z" fill="white" stroke="#3D458D" stroke-width="38.4"/>
</g>
<mask id="mask1_1_20" style="mask-type:luminance" maskUnits="userSpaceOnUse" x="83" y="89" width="161" height="184">
<path d="M236.572 89.3612C195.163 99.6056 158.074 122.727 130.645 155.396C103.216 188.065 86.8617 228.596 83.9378 271.152L110.742 272.994C113.277 236.112 127.45 200.985 151.222 172.672C174.994 144.36 207.137 124.321 243.024 115.443L236.572 89.3612Z" fill="white"/>
</mask>
<g mask="url(#mask1_1_20)">
<path d="M236.572 89.3612C195.163 99.6056 158.074 122.727 130.645 155.396C103.216 188.065 86.8617 228.596 83.9378 271.152L110.742 272.994C113.277 236.112 127.45 200.985 151.222 172.672C174.994 144.36 207.137 124.321 243.024 115.443L236.572 89.3612Z" fill="white" stroke="#F4CA2C" stroke-width="38.4"/>
</g>
<mask id="mask2_1_20" style="mask-type:luminance" maskUnits="userSpaceOnUse" x="326" y="296" width="160" height="185">
<path d="M333.356 480.567C374.764 470.323 411.854 447.201 439.283 414.532C466.712 381.864 483.066 341.333 485.99 298.776L459.185 296.934C456.651 333.817 442.478 368.943 418.706 397.256C394.934 425.569 362.79 445.607 326.903 454.485L333.356 480.567Z" fill="white"/>
</mask>
<g mask="url(#mask2_1_20)">
<path d="M333.356 480.567C374.764 470.323 411.854 447.201 439.283 414.532C466.712 381.864 483.066 341.333 485.99 298.776L459.185 296.934C456.651 333.817 442.478 368.943 418.706 397.256C394.934 425.569 362.79 445.607 326.903 454.485L333.356 480.567Z" fill="white" stroke="#2C2C2C" stroke-width="38.4"/>
</g>
<mask id="mask3_1_20" style="mask-type:luminance" maskUnits="userSpaceOnUse" x="326" y="89" width="160" height="184">
<path d="M333.356 89.3612C374.764 99.6056 411.854 122.727 439.283 155.396C466.712 188.065 483.066 228.596 485.99 271.152L459.185 272.994C456.651 236.112 442.478 200.985 418.706 172.672C394.934 144.36 362.79 124.321 326.903 115.443L333.356 89.3612Z" fill="white"/>
</mask>
<g mask="url(#mask3_1_20)">
<path d="M333.356 89.3612C374.764 99.6056 411.854 122.727 439.283 155.396C466.712 188.065 483.066 228.596 485.99 271.152L459.185 272.994C456.651 236.112 442.478 200.985 418.706 172.672C394.934 144.36 362.79 124.321 326.903 115.443L333.356 89.3612Z" fill="white" stroke="#0AA5E2" stroke-width="38.4"/>
</g>
<path d="M230.078 367.464V199.319H343.379V228.629H265.628V268.695H337.55V298.006H265.628V338.154H343.708V367.464H230.078Z" fill="#2C2C2C"/>
</svg>
